<svg xmlns="http://www.w3.org/2000/svg" width="29.902" height="29.902" viewBox="0 0 29.902 29.902">
    <path fill="#fff" d="M25.475 25.481h-4.428v-6.938c0-1.655-.034-3.784-2.307-3.784-2.309 0-2.661 1.8-2.661 3.662v7.06h-4.428V11.213H15.9v1.944h.057a4.666 4.666 0 0 1 4.2-2.3c4.487 0 5.317 2.953 5.317 6.8v7.832zM6.649 9.26a2.572 2.572 0 1 1 2.572-2.57 2.569 2.569 0 0 1-2.572 2.57zm2.22 16.221H4.43V11.213h4.44v14.268zM27.691 0H2.206A2.18 2.18 0 0 0 0 2.155v25.593A2.179 2.179 0 0 0 2.206 29.9h25.481a2.188 2.188 0 0 0 2.213-2.152V2.155A2.189 2.189 0 0 0 27.687 0z"/>
</svg>
